<?xml version="1.0" encoding="UTF-8" standalone="no"?>
<svg
   xmlns:dc="http://purl.org/dc/elements/1.1/"
   xmlns:cc="http://creativecommons.org/ns#"
   xmlns:rdf="http://www.w3.org/1999/02/22-rdf-syntax-ns#"
   xmlns:svg="http://www.w3.org/2000/svg"
   xmlns="http://www.w3.org/2000/svg"
   xmlns:sodipodi="http://sodipodi.sourceforge.net/DTD/sodipodi-0.dtd"
   xmlns:inkscape="http://www.inkscape.org/namespaces/inkscape"
   version="1.1"
   id="Layer_1"
   x="0px"
   y="0px"
   width="294px"
   height="256.5px"
   viewBox="0 0 294 256.5"
   style="enable-background:new 0 0 294 256.5;"
   xml:space="preserve"
   sodipodi:docname="logo.svg"
   inkscape:version="1.0 (4035a4fb49, 2020-05-01)"><metadata
   id="metadata30"><rdf:RDF><cc:Work
       rdf:about=""><dc:format>image/svg+xml</dc:format><dc:type
         rdf:resource="http://purl.org/dc/dcmitype/StillImage" /></cc:Work></rdf:RDF></metadata><defs
   id="defs28" /><sodipodi:namedview
   inkscape:document-rotation="0"
   pagecolor="#ffffff"
   bordercolor="#666666"
   borderopacity="1"
   objecttolerance="10"
   gridtolerance="10"
   guidetolerance="10"
   inkscape:pageopacity="0"
   inkscape:pageshadow="2"
   inkscape:window-width="1920"
   inkscape:window-height="1017"
   id="namedview26"
   showgrid="false"
   inkscape:zoom="1.6569201"
   inkscape:cx="364.89406"
   inkscape:cy="141.95325"
   inkscape:window-x="1912"
   inkscape:window-y="-8"
   inkscape:window-maximized="1"
   inkscape:current-layer="Layer_1" />
<style
   type="text/css"
   id="style2">
<![CDATA[
	.st0{display:none;fill:#FFF200;}
	.st1{fill:#5D2E8F;}
	.st2{display:inline;fill:#FFFFFF;}
	.st3{fill:#FFFFFF;}
	.st4{display:none;}
]]>
</style>


<g
   class="st4"
   id="g15">
	<path
   class="st2"
   d="M53.9,203.1v-108l0,0l61,108l61-108l0,0v108h-10.6h10.6h-61l0,0H54.7h9.6H53.9z"
   id="path13" />
</g>
<circle
   class="st0"
   cx="114.9"
   cy="149.7"
   r="92.3"
   id="circle17" />

<g
   inkscape:export-ydpi="100.0149"
   inkscape:export-xdpi="100.0149"
   id="g5426-1-7"
   transform="matrix(0.34168071,0,0,0.34168071,-299.40783,6.2158705)"
   style="display:inline;stroke-width:0.22874"><path
     sodipodi:nodetypes="ccscccccc"
     inkscape:connector-curvature="0"
     id="path5198-5-6-0"
     d="m 1087.5314,123.23408 c -69.4855,61.58803 -109.10278,148.50215 -109.23156,239.6367 -3.3e-4,179.88724 150.84346,325.71483 336.91876,325.71485 186.0753,0 336.9191,-145.8276 336.9188,-325.71485 -0.1588,-90.80759 -39.5228,-177.42851 -108.5963,-238.96678 51.3574,55.85461 75.6802,128.54298 75.8099,203.96678 8e-4,168.05239 -131.7597,295.71496 -302.0397,295.71568 -170.2807,2.9e-4 -304.1351,-128.37686 -304.1343,-296.42997 0.1355,-75.73877 22.6083,-147.99106 74.3544,-203.92241 z"
     style="opacity:1;fill:#55d1fe;fill-opacity:1;stroke:none;stroke-width:1.76241;stroke-linecap:square;stroke-linejoin:round;stroke-miterlimit:4;stroke-dasharray:none;stroke-dashoffset:0;stroke-opacity:1;paint-order:markers fill stroke" /><path
     sodipodi:nodetypes="ccscccccc"
     id="path5198-0-5-2-8"
     d="m 1519.9833,106.61115 c -58.669,-56.378696 -138.1879,-85.854696 -219.2467,-81.270236 -159.9849,9.2667 -281.2231,146.057426 -270.7929,305.530426 10.4303,159.47295 148.5793,281.23884 308.5641,271.97162 80.752,-4.81405 155.5828,-43.0128 206.4409,-105.38134 -46.7962,46.89248 -109.8445,75.06958 -176.9163,79.06618 -149.4594,8.65798 -269.1089,-102.62765 -278.6545,-248.56339 -9.5452,-145.93638 94.6293,-271.259386 244.0895,-279.916046 67.3668,-3.78563 133.8721,17.09589 186.5159,58.562786 z"
     style="opacity:1;fill:#1290ce;fill-opacity:1;stroke:none;stroke-width:1.54159;stroke-linecap:square;stroke-linejoin:round;stroke-miterlimit:4;stroke-dasharray:none;stroke-dashoffset:0;stroke-opacity:1;paint-order:markers fill stroke"
     inkscape:connector-curvature="0" /><path
     inkscape:connector-curvature="0"
     id="path5246-6-1-1"
     d="M 1298.0087,68.634894 A 249.28571,246.42856 76.987681 0 0 1119.6824,234.15437 235.71428,238.57141 76.987681 0 1 1280.5134,107.13503 235.71428,238.57141 76.987681 0 1 1566.0328,283.07813 235.71428,238.57141 76.987681 0 1 1452.2994,540.45357 249.28571,246.42856 76.987681 0 0 1594.2378,256.03299 249.28571,246.42856 76.987681 0 0 1298.0087,68.634894 Z"
     style="opacity:1;fill:#1a466c;fill-opacity:1;stroke:none;stroke-width:1.60851;stroke-linecap:square;stroke-linejoin:round;stroke-miterlimit:4;stroke-dasharray:none;stroke-dashoffset:0;stroke-opacity:1;paint-order:markers fill stroke" /></g><text
   id="text16"
   y="145.45059"
   x="88.115295"
   style="font-style:normal;font-weight:normal;font-size:40px;line-height:1.25;font-family:sans-serif;fill:#000000;fill-opacity:1;stroke:none"
   xml:space="preserve"><tspan
     style="font-style:normal;font-variant:normal;font-weight:normal;font-stretch:normal;font-size:64px;font-family:impact;-inkscape-font-specification:impact;fill:#d4aa00"
     y="145.45059"
     x="88.115295"
     id="tspan14"
     sodipodi:role="line">DEMO</tspan></text></svg>
