<?xml version="1.0" encoding="UTF-8" standalone="no"?>
<svg
   xmlns:dc="http://purl.org/dc/elements/1.1/"
   xmlns:cc="http://creativecommons.org/ns#"
   xmlns:rdf="http://www.w3.org/1999/02/22-rdf-syntax-ns#"
   xmlns:svg="http://www.w3.org/2000/svg"
   xmlns="http://www.w3.org/2000/svg"
   xmlns:sodipodi="http://sodipodi.sourceforge.net/DTD/sodipodi-0.dtd"
   xmlns:inkscape="http://www.inkscape.org/namespaces/inkscape"
   version="1.1"
   id="Layer_1"
   x="0px"
   y="0px"
   width="294px"
   height="256.5px"
   viewBox="0 0 294 256.5"
   style="enable-background:new 0 0 294 256.5;"
   xml:space="preserve"
   sodipodi:docname="logo-dark.svg"
   inkscape:version="1.0 (4035a4fb49, 2020-05-01)"><metadata
   id="metadata30"><rdf:RDF><cc:Work
       rdf:about=""><dc:format>image/svg+xml</dc:format><dc:type
         rdf:resource="http://purl.org/dc/dcmitype/StillImage" /></cc:Work></rdf:RDF></metadata><defs
   id="defs28"><pattern
     y="0"
     x="0"
     height="6"
     width="6"
     patternUnits="userSpaceOnUse"
     id="EMFhbasepattern" /></defs><sodipodi:namedview
   inkscape:document-rotation="0"
   pagecolor="#ffffff"
   bordercolor="#666666"
   borderopacity="1"
   objecttolerance="10"
   gridtolerance="10"
   guidetolerance="10"
   inkscape:pageopacity="0"
   inkscape:pageshadow="2"
   inkscape:window-width="1920"
   inkscape:window-height="1017"
   id="namedview26"
   showgrid="false"
   inkscape:zoom="0.58580973"
   inkscape:cx="594.63927"
   inkscape:cy="240.95719"
   inkscape:window-x="1912"
   inkscape:window-y="-8"
   inkscape:window-maximized="1"
   inkscape:current-layer="Layer_1" />
<style
   type="text/css"
   id="style2">
<![CDATA[
	.st0{display:none;fill:#FFF200;}
	.st1{fill:#5D2E8F;}
	.st2{display:inline;fill:#FFFFFF;}
	.st3{fill:#FFFFFF;}
	.st4{display:none;}
]]>
</style>


<g
   class="st4"
   id="g15">
	<path
   class="st2"
   d="M53.9,203.1v-108l0,0l61,108l61-108l0,0v108h-10.6h10.6h-61l0,0H54.7h9.6H53.9z"
   id="path13" />
</g>
<circle
   class="st0"
   cx="114.9"
   cy="149.7"
   r="92.3"
   id="circle17" />

<rect
   y="12.756632"
   x="31.534061"
   height="232.24962"
   width="232.24962"
   id="rect914"
   style="fill:#8eb554;fill-opacity:1;stroke-width:1.16321" /><path
   sodipodi:nodetypes="ccccccccccccccccc"
   d="M 47.532959,28.755293 V 229.00725 H 247.78491 v 0 L 98.157636,79.354225 148.75684,28.755293 Z m 144.133131,0 -47.99482,47.994773 56.30265,56.302654 47.81099,-47.81067 V 28.755293 Z m 56.11882,99.395677 -26.35636,26.35637 26.35636,26.35637 z"
   style="fill:#1d78be;fill-opacity:1;stroke-width:1.00294"
   id="path916" /><rect
   style="fill:#ffffff;fill-opacity:1;stroke-width:1.16321"
   id="rect918"
   width="232.24962"
   height="232.24962"
   x="31.534061"
   y="12.756632" /><path
   id="path920"
   style="fill:#1d78be;fill-opacity:1;stroke-width:1.00294"
   d="M 47.532959,28.755293 V 229.00725 H 247.78491 v 0 L 98.157636,79.354225 148.75684,28.755293 Z m 144.133131,0 -47.99482,47.994773 56.30265,56.302654 47.81099,-47.81067 V 28.755293 Z m 56.11882,99.395677 -26.35636,26.35637 26.35636,26.35637 z"
   sodipodi:nodetypes="ccccccccccccccccc" /></svg>
