<?xml version="1.0" encoding="UTF-8" standalone="no"?>
<svg
   xmlns:dc="http://purl.org/dc/elements/1.1/"
   xmlns:cc="http://creativecommons.org/ns#"
   xmlns:rdf="http://www.w3.org/1999/02/22-rdf-syntax-ns#"
   xmlns:svg="http://www.w3.org/2000/svg"
   xmlns="http://www.w3.org/2000/svg"
   xmlns:sodipodi="http://sodipodi.sourceforge.net/DTD/sodipodi-0.dtd"
   xmlns:inkscape="http://www.inkscape.org/namespaces/inkscape"
   version="1.1"
   id="Layer_1"
   x="0px"
   y="0px"
   width="294px"
   height="256.5px"
   viewBox="0 0 294 256.5"
   style="enable-background:new 0 0 294 256.5;"
   xml:space="preserve"
   sodipodi:docname="logo.svg"
   inkscape:version="1.0 (4035a4fb49, 2020-05-01)"><metadata
   id="metadata30"><rdf:RDF><cc:Work
       rdf:about=""><dc:format>image/svg+xml</dc:format><dc:type
         rdf:resource="http://purl.org/dc/dcmitype/StillImage" /></cc:Work></rdf:RDF></metadata><defs
   id="defs28"><pattern
     y="0"
     x="0"
     height="6"
     width="6"
     patternUnits="userSpaceOnUse"
     id="EMFhbasepattern" /></defs><sodipodi:namedview
   inkscape:document-rotation="0"
   pagecolor="#ffffff"
   bordercolor="#666666"
   borderopacity="1"
   objecttolerance="10"
   gridtolerance="10"
   guidetolerance="10"
   inkscape:pageopacity="0"
   inkscape:pageshadow="2"
   inkscape:window-width="1920"
   inkscape:window-height="1017"
   id="namedview26"
   showgrid="false"
   inkscape:zoom="1.1716194"
   inkscape:cx="330.78217"
   inkscape:cy="272.49937"
   inkscape:window-x="1912"
   inkscape:window-y="-8"
   inkscape:window-maximized="1"
   inkscape:current-layer="Layer_1" />
<style
   type="text/css"
   id="style2">
<![CDATA[
	.st0{display:none;fill:#FFF200;}
	.st1{fill:#5D2E8F;}
	.st2{display:inline;fill:#FFFFFF;}
	.st3{fill:#FFFFFF;}
	.st4{display:none;}
]]>
</style>


<g
   class="st4"
   id="g15">
	<path
   class="st2"
   d="M53.9,203.1v-108l0,0l61,108l61-108l0,0v108h-10.6h10.6h-61l0,0H54.7h9.6H53.9z"
   id="path13" />
</g>
<circle
   class="st0"
   cx="114.9"
   cy="149.7"
   r="92.3"
   id="circle17" />

<rect
   y="6.7820001"
   x="23.852392"
   height="242.49185"
   width="242.49185"
   id="rect914"
   style="fill:#8eb554;fill-opacity:1;stroke-width:1.21451" /><path
   sodipodi:nodetypes="ccccccccccccccccc"
   d="M 40.556837,23.486206 V 232.5693 H 249.63993 v 0 L 93.414069,76.316557 146.24471,23.486206 Z m 150.489433,0 -50.1114,50.111347 58.7856,58.785597 49.91946,-49.919115 V 23.486206 Z m 58.59366,103.779044 -27.51868,27.51868 27.51868,27.5187 z"
   style="fill:#1d78be;fill-opacity:1;stroke-width:1.04717"
   id="path916" /><rect
   style="fill:#ffffff;fill-opacity:1;stroke-width:1.21451"
   id="rect918"
   width="242.49185"
   height="242.49185"
   x="23.852392"
   y="6.7820001" /><path
   id="path920"
   style="fill:#1d78be;fill-opacity:1;stroke-width:1.04717"
   d="M 40.556837,23.486206 V 232.5693 H 249.63993 v 0 L 93.414069,76.316557 146.24471,23.486206 Z m 150.489433,0 -50.1114,50.111347 58.7856,58.785597 49.91946,-49.919115 V 23.486206 Z m 58.59366,103.779044 -27.51868,27.51868 27.51868,27.5187 z"
   sodipodi:nodetypes="ccccccccccccccccc" /></svg>
